<mxfile host="app.diagrams.net" modified="2021-02-10T00:08:44.944Z" agent="5.0 (Windows NT 10.0; Win64; x64) AppleWebKit/537.36 (KHTML, like Gecko) Chrome/90.0.4413.0 Safari/537.36" etag="-Y9ZFYT57QwAJ1OxBEwe" version="14.3.0" type="github">
  <diagram id="AB1RtUzKGKamLkKsg58Y" name="第 1 页">
    <mxGraphModel dx="1038" dy="1817" grid="0" gridSize="10" guides="1" tooltips="1" connect="1" arrows="1" fold="1" page="1" pageScale="1" pageWidth="1600" pageHeight="1200" background="none" math="1" shadow="1">
      <root>
        <mxCell id="0" />
        <mxCell id="1" parent="0" />
        <mxCell id="_LHDBJVwjU2LESANgjI_-8" style="edgeStyle=orthogonalEdgeStyle;rounded=0;orthogonalLoop=1;jettySize=auto;html=1;" parent="1" source="_LHDBJVwjU2LESANgjI_-4" target="_LHDBJVwjU2LESANgjI_-7" edge="1">
          <mxGeometry relative="1" as="geometry" />
        </mxCell>
        <mxCell id="_LHDBJVwjU2LESANgjI_-4" value="" style="ellipse;whiteSpace=wrap;html=1;aspect=fixed;" parent="1" vertex="1">
          <mxGeometry x="154" y="-639" width="133" height="133" as="geometry" />
        </mxCell>
        <mxCell id="_LHDBJVwjU2LESANgjI_-6" value="" style="ellipse;whiteSpace=wrap;html=1;aspect=fixed;" parent="1" vertex="1">
          <mxGeometry x="1201" y="-640.5" width="133" height="133" as="geometry" />
        </mxCell>
        <mxCell id="_LHDBJVwjU2LESANgjI_-9" style="edgeStyle=orthogonalEdgeStyle;rounded=0;orthogonalLoop=1;jettySize=auto;html=1;" parent="1" source="_LHDBJVwjU2LESANgjI_-7" target="_LHDBJVwjU2LESANgjI_-6" edge="1">
          <mxGeometry relative="1" as="geometry" />
        </mxCell>
        <mxCell id="_LHDBJVwjU2LESANgjI_-7" value="" style="whiteSpace=wrap;html=1;aspect=fixed;" parent="1" vertex="1">
          <mxGeometry x="678" y="-614" width="80" height="80" as="geometry" />
        </mxCell>
        <mxCell id="_LHDBJVwjU2LESANgjI_-12" style="edgeStyle=orthogonalEdgeStyle;rounded=0;orthogonalLoop=1;jettySize=auto;html=1;entryX=0.5;entryY=0;entryDx=0;entryDy=0;" parent="1" source="_LHDBJVwjU2LESANgjI_-10" target="_LHDBJVwjU2LESANgjI_-7" edge="1">
          <mxGeometry relative="1" as="geometry" />
        </mxCell>
        <mxCell id="_LHDBJVwjU2LESANgjI_-10" value="" style="rhombus;whiteSpace=wrap;html=1;" parent="1" vertex="1">
          <mxGeometry x="678" y="-891" width="80" height="80" as="geometry" />
        </mxCell>
        <mxCell id="_LHDBJVwjU2LESANgjI_-11" value="" style="rhombus;whiteSpace=wrap;html=1;" parent="1" vertex="1">
          <mxGeometry x="673" y="-331" width="80" height="80" as="geometry" />
        </mxCell>
      </root>
    </mxGraphModel>
  </diagram>
</mxfile>
